<svg viewBox="0 0 1000 720" xmlns="http://www.w3.org/2000/svg" font-family="'Courier New', monospace">
  <defs>
    <!-- Background gradient -->
    <linearGradient id="bgGrad" x1="0" y1="0" x2="0" y2="1">
      <stop offset="0%" stop-color="#0a0f1e"/>
      <stop offset="100%" stop-color="#0d1b2a"/>
    </linearGradient>
    <!-- HQ gradient -->
    <linearGradient id="hqGrad" x1="0" y1="0" x2="1" y2="1">
      <stop offset="0%" stop-color="#1a2f5e"/>
      <stop offset="100%" stop-color="#0e1e3f"/>
    </linearGradient>
    <!-- Branch gradient -->
    <linearGradient id="branchGrad" x1="0" y1="0" x2="1" y2="1">
      <stop offset="0%" stop-color="#1a3a4a"/>
      <stop offset="100%" stop-color="#0e2535"/>
    </linearGradient>
    <!-- Prisma gradient -->
    <linearGradient id="prismaGrad" x1="0" y1="0" x2="1" y2="1">
      <stop offset="0%" stop-color="#2a1a4e"/>
      <stop offset="100%" stop-color="#1a0e35"/>
    </linearGradient>
    <!-- Bottom box gradient -->
    <linearGradient id="bottomGrad" x1="0" y1="0" x2="1" y2="1">
      <stop offset="0%" stop-color="#1a2a3e"/>
      <stop offset="100%" stop-color="#0e1e2e"/>
    </linearGradient>
    <!-- Internet gradient -->
    <linearGradient id="internetGrad" x1="0" y1="0" x2="1" y2="1">
      <stop offset="0%" stop-color="#0a2a3a"/>
      <stop offset="100%" stop-color="#061a28"/>
    </linearGradient>

    <!-- Glow filters -->
    <filter id="glowBlue" x="-30%" y="-30%" width="160%" height="160%">
      <feGaussianBlur stdDeviation="3" result="blur"/>
      <feMerge><feMergeNode in="blur"/><feMergeNode in="SourceGraphic"/></feMerge>
    </filter>
    <filter id="glowPurple" x="-30%" y="-30%" width="160%" height="160%">
      <feGaussianBlur stdDeviation="3" result="blur"/>
      <feMerge><feMergeNode in="blur"/><feMergeNode in="SourceGraphic"/></feMerge>
    </filter>
    <filter id="glowCyan">
      <feGaussianBlur stdDeviation="2" result="blur"/>
      <feMerge><feMergeNode in="blur"/><feMergeNode in="SourceGraphic"/></feMerge>
    </filter>

    <!-- Arrow markers -->
    <marker id="arrowBlue" markerWidth="10" markerHeight="7" refX="10" refY="3.5" orient="auto">
      <polygon points="0 0, 10 3.5, 0 7" fill="#4a9eff"/>
    </marker>
    <marker id="arrowCyan" markerWidth="10" markerHeight="7" refX="10" refY="3.5" orient="auto">
      <polygon points="0 0, 10 3.5, 0 7" fill="#00d4ff"/>
    </marker>
    <marker id="arrowPurple" markerWidth="10" markerHeight="7" refX="10" refY="3.5" orient="auto">
      <polygon points="0 0, 10 3.5, 0 7" fill="#a855f7"/>
    </marker>
    <marker id="arrowGreen" markerWidth="10" markerHeight="7" refX="10" refY="3.5" orient="auto">
      <polygon points="0 0, 10 3.5, 0 7" fill="#22d3ee"/>
    </marker>

    <!-- Grid pattern -->
    <pattern id="grid" width="40" height="40" patternUnits="userSpaceOnUse">
      <path d="M 40 0 L 0 0 0 40" fill="none" stroke="#ffffff" stroke-width="0.15" stroke-opacity="0.08"/>
    </pattern>

    <!-- Animated dash -->
    <style>
      .dash-anim { stroke-dasharray: 8 4; animation: dash 2s linear infinite; }
      .dash-anim2 { stroke-dasharray: 8 4; animation: dash 2.5s linear infinite; }
      .dash-anim3 { stroke-dasharray: 8 4; animation: dash 1.8s linear infinite; }
      @keyframes dash { to { stroke-dashoffset: -48; } }
    </style>
  </defs>

  <!-- Background -->
  <rect width="1000" height="720" fill="url(#bgGrad)"/>
  <rect width="1000" height="720" fill="url(#grid)"/>

  <!-- Title -->
  <text x="500" y="36" text-anchor="middle" fill="#00d4ff" font-size="15" font-weight="bold" letter-spacing="4" filter="url(#glowCyan)">ENTERPRISE NETWORK ARCHITECTURE</text>
  <text x="500" y="54" text-anchor="middle" fill="#4a7a9b" font-size="10" letter-spacing="3">Fortinet SD-WAN + Prisma Access ZTNA Topology</text>
  <line x1="180" y1="60" x2="820" y2="60" stroke="#00d4ff" stroke-width="0.5" stroke-opacity="0.3"/>

  <!-- ===== HQ DATACENTER ===== -->
  <rect x="330" y="74" width="340" height="90" rx="8" fill="url(#hqGrad)" stroke="#4a9eff" stroke-width="1.5" filter="url(#glowBlue)"/>
  <rect x="330" y="74" width="340" height="26" rx="8" fill="#1e3a6e" stroke="none"/>
  <rect x="330" y="88" width="340" height="12" rx="0" fill="#1e3a6e" stroke="none"/>
  <!-- Header text -->
  <text x="500" y="92" text-anchor="middle" fill="#00d4ff" font-size="11" font-weight="bold" letter-spacing="2">HQ DATACENTER</text>
  <!-- Icon: server rack -->
  <rect x="442" y="108" width="18" height="14" rx="2" fill="none" stroke="#4a9eff" stroke-width="1.2"/>
  <rect x="444" y="111" width="14" height="3" rx="1" fill="#4a9eff" opacity="0.5"/>
  <rect x="444" y="116" width="14" height="3" rx="1" fill="#4a9eff" opacity="0.5"/>
  <circle cx="457" cy="112.5" r="1" fill="#00ff88"/>
  <circle cx="457" cy="117.5" r="1" fill="#00ff88"/>
  <!-- NGFW badge -->
  <rect x="464" y="104" width="94" height="22" rx="4" fill="#0a2040" stroke="#4a9eff" stroke-width="0.8"/>
  <text x="511" y="119" text-anchor="middle" fill="#4a9eff" font-size="10" letter-spacing="1">Fortinet NGFW</text>
  <!-- Status indicator -->
  <circle cx="342" cy="86" r="4" fill="#00ff88" opacity="0.8"/>
  <text x="352" y="89" fill="#4a9eff" font-size="8" opacity="0.8">ACTIVE</text>

  <!-- ===== SD-WAN OVERLAY LABEL ===== -->
  <text x="500" y="188" text-anchor="middle" fill="#22d3ee" font-size="9" letter-spacing="2" opacity="0.8">Fortinet SD-WAN Overlay</text>

  <!-- Vertical line HQ → branch split -->
  <line x1="500" y1="164" x2="500" y2="202" stroke="#4a9eff" stroke-width="1.5" marker-end="url(#arrowBlue)" class="dash-anim"/>

  <!-- Horizontal line branch 1 to branch 2 -->
  <line x1="200" y1="202" x2="800" y2="202" stroke="#4a9eff" stroke-width="1.5"/>
  <!-- Vertical down to Branch 1 -->
  <line x1="200" y1="202" x2="200" y2="226" stroke="#4a9eff" stroke-width="1.5" marker-end="url(#arrowBlue)"/>
  <!-- Vertical down to Branch 2 -->
  <line x1="800" y1="202" x2="800" y2="226" stroke="#4a9eff" stroke-width="1.5" marker-end="url(#arrowBlue)"/>

  <!-- ===== BRANCH 1 ===== -->
  <rect x="80" y="226" width="240" height="80" rx="8" fill="url(#branchGrad)" stroke="#22d3ee" stroke-width="1.5" filter="url(#glowCyan)"/>
  <rect x="80" y="226" width="240" height="24" rx="8" fill="#0e2535" stroke="none"/>
  <rect x="80" y="238" width="240" height="12" rx="0" fill="#0e2535" stroke="none"/>
  <text x="200" y="243" text-anchor="middle" fill="#22d3ee" font-size="11" font-weight="bold" letter-spacing="1">BRANCH 1</text>
  <!-- FW icon -->
  <rect x="118" y="258" width="20" height="16" rx="3" fill="none" stroke="#22d3ee" stroke-width="1.2"/>
  <line x1="118" y1="264" x2="138" y2="264" stroke="#22d3ee" stroke-width="0.8"/>
  <line x1="118" y1="269" x2="138" y2="269" stroke="#22d3ee" stroke-width="0.8"/>
  <text x="145" y="270" fill="#22d3ee" font-size="9.5">FortiGate FW</text>
  <circle cx="92" cy="238" r="4" fill="#22d3ee" opacity="0.6"/>

  <!-- ===== BRANCH 2 ===== -->
  <rect x="680" y="226" width="240" height="80" rx="8" fill="url(#branchGrad)" stroke="#22d3ee" stroke-width="1.5" filter="url(#glowCyan)"/>
  <rect x="680" y="226" width="240" height="24" rx="8" fill="#0e2535" stroke="none"/>
  <rect x="680" y="238" width="240" height="12" rx="0" fill="#0e2535" stroke="none"/>
  <text x="800" y="243" text-anchor="middle" fill="#22d3ee" font-size="11" font-weight="bold" letter-spacing="1">BRANCH 2</text>
  <rect x="718" y="258" width="20" height="16" rx="3" fill="none" stroke="#22d3ee" stroke-width="1.2"/>
  <line x1="718" y1="264" x2="738" y2="264" stroke="#22d3ee" stroke-width="0.8"/>
  <line x1="718" y1="269" x2="738" y2="269" stroke="#22d3ee" stroke-width="0.8"/>
  <text x="745" y="270" fill="#22d3ee" font-size="9.5">FortiGate FW</text>
  <circle cx="692" cy="238" r="4" fill="#22d3ee" opacity="0.6"/>

  <!-- ===== INTERNET CLOUD ===== -->
  <!-- Lines from Branch 1 and Branch 2 to Internet -->
  <line x1="200" y1="306" x2="200" y2="342" stroke="#4a9eff" stroke-width="1.3" class="dash-anim2"/>
  <line x1="800" y1="306" x2="800" y2="342" stroke="#4a9eff" stroke-width="1.3" class="dash-anim2"/>
  <line x1="200" y1="342" x2="800" y2="342" stroke="#4a9eff" stroke-width="1.3"/>

  <!-- Internet cloud shape -->
  <ellipse cx="500" cy="352" rx="130" ry="32" fill="url(#internetGrad)" stroke="#4a9eff" stroke-width="1.2" opacity="0.9"/>
  <!-- Cloud bumps -->
  <ellipse cx="400" cy="346" rx="38" ry="24" fill="url(#internetGrad)" stroke="#4a9eff" stroke-width="1"/>
  <ellipse cx="460" cy="338" rx="44" ry="28" fill="url(#internetGrad)" stroke="#4a9eff" stroke-width="1"/>
  <ellipse cx="540" cy="338" rx="44" ry="28" fill="url(#internetGrad)" stroke="#4a9eff" stroke-width="1"/>
  <ellipse cx="600" cy="346" rx="38" ry="24" fill="url(#internetGrad)" stroke="#4a9eff" stroke-width="1"/>
  <ellipse cx="500" cy="340" rx="130" ry="30" fill="url(#internetGrad)" stroke="none"/>
  <!-- Internet label -->
  <text x="500" y="348" text-anchor="middle" fill="#4a9eff" font-size="12" font-weight="bold" letter-spacing="3">INTERNET</text>
  <!-- Globe lines -->
  <ellipse cx="480" cy="354" rx="10" ry="6" fill="none" stroke="#4a9eff" stroke-width="0.7" opacity="0.5"/>
  <line x1="470" y1="354" x2="490" y2="354" stroke="#4a9eff" stroke-width="0.7" opacity="0.5"/>

  <!-- ===== PRISMA ACCESS CLOUD ===== -->
  <!-- Line Internet → Prisma -->
  <line x1="500" y1="370" x2="500" y2="404" stroke="#a855f7" stroke-width="1.5" marker-end="url(#arrowPurple)" class="dash-anim3"/>
  <text x="510" y="390" fill="#a855f7" font-size="8.5" letter-spacing="1" opacity="0.9">Prisma Access</text>

  <rect x="270" y="404" width="460" height="86" rx="10" fill="url(#prismaGrad)" stroke="#a855f7" stroke-width="1.8" filter="url(#glowPurple)"/>
  <rect x="270" y="404" width="460" height="26" rx="10" fill="#2a1060" stroke="none"/>
  <rect x="270" y="418" width="460" height="12" rx="0" fill="#2a1060" stroke="none"/>
  <text x="500" y="421" text-anchor="middle" fill="#c084fc" font-size="11" font-weight="bold" letter-spacing="2">PRISMA ACCESS CLOUD</text>
  <!-- Shield icon -->
  <path d="M 296 438 L 296 448 Q 296 455 302 458 L 308 461 L 314 458 Q 320 455 320 448 L 320 438 Z" fill="none" stroke="#a855f7" stroke-width="1.2"/>
  <path d="M 300 445 L 304 449 L 312 442" fill="none" stroke="#a855f7" stroke-width="1.5" stroke-linecap="round"/>
  <!-- Badges -->
  <rect x="330" y="432" width="110" height="20" rx="4" fill="#1a0a30" stroke="#a855f7" stroke-width="0.8"/>
  <text x="385" y="446" text-anchor="middle" fill="#c084fc" font-size="8.5">GlobalProtect VPN</text>
  <rect x="448" y="432" width="110" height="20" rx="4" fill="#1a0a30" stroke="#a855f7" stroke-width="0.8"/>
  <text x="503" y="446" text-anchor="middle" fill="#c084fc" font-size="8.5">ZTNA Policies</text>
  <rect x="566" y="432" width="100" height="20" rx="4" fill="#1a0a30" stroke="#a855f7" stroke-width="0.8"/>
  <text x="616" y="446" text-anchor="middle" fill="#c084fc" font-size="8.5">Identity Engine</text>
  <circle cx="282" cy="416" r="4" fill="#a855f7" opacity="0.7"/>

  <!-- ===== BOTTOM THREE BOXES ===== -->
  <!-- Branching lines from Prisma -->
  <line x1="500" y1="490" x2="500" y2="520" stroke="#a855f7" stroke-width="1.2"/>
  <line x1="175" y1="520" x2="825" y2="520" stroke="#a855f7" stroke-width="1.2"/>
  <line x1="175" y1="520" x2="175" y2="544" stroke="#a855f7" stroke-width="1.2" marker-end="url(#arrowPurple)"/>
  <line x1="500" y1="520" x2="500" y2="544" stroke="#a855f7" stroke-width="1.2" marker-end="url(#arrowPurple)"/>
  <line x1="825" y1="520" x2="825" y2="544" stroke="#a855f7" stroke-width="1.2" marker-end="url(#arrowPurple)"/>

  <!-- Remote Users -->
  <rect x="46" y="544" width="258" height="118" rx="8" fill="url(#bottomGrad)" stroke="#22d3ee" stroke-width="1.4"/>
  <rect x="46" y="544" width="258" height="24" rx="8" fill="#0a2030" stroke="none"/>
  <rect x="46" y="556" width="258" height="12" rx="0" fill="#0a2030" stroke="none"/>
  <text x="175" y="561" text-anchor="middle" fill="#22d3ee" font-size="10" font-weight="bold" letter-spacing="1.5">REMOTE USERS</text>
  <!-- Person icons -->
  <circle cx="90" cy="586" r="8" fill="none" stroke="#22d3ee" stroke-width="1.2"/>
  <path d="M 76 608 Q 76 596 90 596 Q 104 596 104 608" fill="none" stroke="#22d3ee" stroke-width="1.2"/>
  <circle cx="130" cy="586" r="8" fill="none" stroke="#22d3ee" stroke-width="1.2" opacity="0.6"/>
  <path d="M 116 608 Q 116 596 130 596 Q 144 596 144 608" fill="none" stroke="#22d3ee" stroke-width="1.2" opacity="0.6"/>
  <!-- Tags -->
  <rect x="155" y="578" width="55" height="16" rx="3" fill="#0a1a28" stroke="#22d3ee" stroke-width="0.8"/>
  <text x="182.5" y="590" text-anchor="middle" fill="#22d3ee" font-size="8">ZTNA</text>
  <rect x="215" y="578" width="55" height="16" rx="3" fill="#0a1a28" stroke="#22d3ee" stroke-width="0.8"/>
  <text x="242.5" y="590" text-anchor="middle" fill="#22d3ee" font-size="8">BYOD</text>
  <text x="175" y="622" text-anchor="middle" fill="#4a7a9b" font-size="8.5">Zero-Trust Network Access</text>
  <text x="175" y="636" text-anchor="middle" fill="#4a7a9b" font-size="8.5">Identity Verified · MFA Enforced</text>
  <text x="175" y="650" text-anchor="middle" fill="#4a7a9b" font-size="8.5">Device Posture Checked</text>

  <!-- SaaS Applications -->
  <rect x="372" y="544" width="258" height="118" rx="8" fill="url(#bottomGrad)" stroke="#f59e0b" stroke-width="1.4"/>
  <rect x="372" y="544" width="258" height="24" rx="8" fill="#2a1a06" stroke="none"/>
  <rect x="372" y="556" width="258" height="12" rx="0" fill="#2a1a06" stroke="none"/>
  <text x="501" y="561" text-anchor="middle" fill="#fbbf24" font-size="10" font-weight="bold" letter-spacing="1.5">SaaS APPLICATIONS</text>
  <!-- App icons -->
  <rect x="390" y="576" width="32" height="20" rx="3" fill="#1a0a00" stroke="#f59e0b" stroke-width="0.9"/>
  <text x="406" y="590" text-anchor="middle" fill="#fbbf24" font-size="7.5">O365</text>
  <rect x="430" y="576" width="50" height="20" rx="3" fill="#1a0a00" stroke="#f59e0b" stroke-width="0.9"/>
  <text x="455" y="590" text-anchor="middle" fill="#fbbf24" font-size="7.5">Salesforce</text>
  <rect x="488" y="576" width="32" height="20" rx="3" fill="#1a0a00" stroke="#f59e0b" stroke-width="0.9"/>
  <text x="504" y="590" text-anchor="middle" fill="#fbbf24" font-size="7.5">AWS</text>
  <rect x="528" y="576" width="38" height="20" rx="3" fill="#1a0a00" stroke="#f59e0b" stroke-width="0.9"/>
  <text x="547" y="590" text-anchor="middle" fill="#fbbf24" font-size="7.5">Azure</text>
  <rect x="574" y="576" width="42" height="20" rx="3" fill="#1a0a00" stroke="#f59e0b" stroke-width="0.9"/>
  <text x="595" y="590" text-anchor="middle" fill="#fbbf24" font-size="7.5">GCP</text>
  <text x="501" y="622" text-anchor="middle" fill="#6b4a10" font-size="8.5">Cloud-Native Applications</text>
  <text x="501" y="636" text-anchor="middle" fill="#6b4a10" font-size="8.5">Encrypted Traffic Inspection</text>
  <text x="501" y="650" text-anchor="middle" fill="#6b4a10" font-size="8.5">DLP · Access Control Policies</text>

  <!-- Cloud Security -->
  <rect x="698" y="544" width="258" height="118" rx="8" fill="url(#bottomGrad)" stroke="#f43f5e" stroke-width="1.4"/>
  <rect x="698" y="544" width="258" height="24" rx="8" fill="#2a0614" stroke="none"/>
  <rect x="698" y="556" width="258" height="12" rx="0" fill="#2a0614" stroke="none"/>
  <text x="827" y="561" text-anchor="middle" fill="#fb7185" font-size="10" font-weight="bold" letter-spacing="1.5">CLOUD SECURITY</text>
  <!-- Security labels in grid -->
  <rect x="714" y="576" width="36" height="16" rx="3" fill="#1a0008" stroke="#f43f5e" stroke-width="0.8"/>
  <text x="732" y="588" text-anchor="middle" fill="#fb7185" font-size="7.5">NGFW</text>
  <rect x="756" y="576" width="34" height="16" rx="3" fill="#1a0008" stroke="#f43f5e" stroke-width="0.8"/>
  <text x="773" y="588" text-anchor="middle" fill="#fb7185" font-size="7.5">CASB</text>
  <rect x="796" y="576" width="30" height="16" rx="3" fill="#1a0008" stroke="#f43f5e" stroke-width="0.8"/>
  <text x="811" y="588" text-anchor="middle" fill="#fb7185" font-size="7.5">SWG</text>
  <rect x="832" y="576" width="30" height="16" rx="3" fill="#1a0008" stroke="#f43f5e" stroke-width="0.8"/>
  <text x="847" y="588" text-anchor="middle" fill="#fb7185" font-size="7.5">DNS</text>
  <rect x="868" y="576" width="72" height="16" rx="3" fill="#1a0008" stroke="#f43f5e" stroke-width="0.8"/>
  <text x="904" y="588" text-anchor="middle" fill="#fb7185" font-size="7.5">Threat Intel</text>
  <text x="827" y="622" text-anchor="middle" fill="#7a1020" font-size="8.5">Next-Gen Firewall Protection</text>
  <text x="827" y="636" text-anchor="middle" fill="#7a1020" font-size="8.5">Cloud Access Security Broker</text>
  <text x="827" y="650" text-anchor="middle" fill="#7a1020" font-size="8.5">Secure Web Gateway · DNS Filter</text>

  <!-- Legend -->
  <rect x="30" y="674" width="940" height="36" rx="6" fill="#050d18" stroke="#1a2a3a" stroke-width="1"/>
  <line x1="50" y1="692" x2="80" y2="692" stroke="#4a9eff" stroke-width="1.5" stroke-dasharray="6 3"/>
  <text x="85" y="696" fill="#4a7a9b" font-size="8.5">SD-WAN Tunnel</text>
  <line x1="170" y1="692" x2="200" y2="692" stroke="#a855f7" stroke-width="1.5" stroke-dasharray="6 3"/>
  <text x="205" y="696" fill="#4a7a9b" font-size="8.5">ZTNA / VPN Tunnel</text>
  <circle cx="300" cy="692" r="4" fill="#00ff88"/>
  <text x="309" y="696" fill="#4a7a9b" font-size="8.5">Active Node</text>
  <circle cx="380" cy="692" r="4" fill="#f59e0b"/>
  <text x="389" y="696" fill="#4a7a9b" font-size="8.5">SaaS</text>
  <circle cx="435" cy="692" r="4" fill="#f43f5e"/>
  <text x="444" y="696" fill="#4a7a9b" font-size="8.5">Security Service</text>
  <text x="940" y="696" text-anchor="end" fill="#1e3a5a" font-size="8">v1.0 · Fortinet + Palo Alto Prisma</text>
</svg>
